<svg xmlns="http://www.w3.org/2000/svg" width="24" height="24" stroke="currentColor" viewBox="0 -960 960 960"><path d="M1272.376 37.904h368.25v185.269h-368.25zM784.125 37.904h368.25v185.269h-368.25ZM295.875 37.904h368.25v185.269h-368.25Z" style="fill:none;stroke-width:69.3655;stroke-linecap:round;stroke-linejoin:round" transform="matrix(.59923 0 0 .61654 -100.204 -372.272)"/><path d="M1272.376-267.365h368.25v185.269h-368.25zM784.125-267.365h368.25v185.269h-368.25Z" style="fill:none;stroke-width:69.3655;stroke-linecap:round;stroke-linejoin:round" transform="matrix(.59923 0 0 .61654 -246.491 -372.272)"/><path d="M1272.376-572.635h368.25v185.27h-368.25zM784.125-572.635h368.25v185.27h-368.25ZM295.875-572.635h368.25v185.27h-368.25Z" style="fill:none;stroke-width:69.3655;stroke-linecap:round;stroke-linejoin:round" transform="matrix(.59923 0 0 .61654 -100.204 -372.272)"/></svg>
