<svg version="1.1" id="Layer_1" xmlns="http://www.w3.org/2000/svg" width="24" height="24" viewBox="0 0 512 682.562" fill="currentColor"><path d="M304,0c0,0,23.688,84.805,23.688,153.602c0,65.922-43.219,119.523-109.289,119.523c-66.078,0-116-53.445-116-119.523 l0.805-11.523C38.883,219.047,0,318.242,0,426.562c0,141.438,114.562,256,256,256s256-114.562,256-256 C512,253.922,428.969,100,304,0z M246.719,586.562c-56.961,0-103.195-44.969-103.195-100.484c0-52,33.438-88.484,90.078-99.828 c56.648-11.375,115.195-38.57,147.68-82.406c12.469,41.281,19.031,84.797,19.031,129.125 C400.312,517.594,331.531,586.562,246.719,586.562z"></path></svg>
