<svg xmlns="http://www.w3.org/2000/svg" width="24" height="24" fill="currentColor" viewBox="0 -960 960 960"><path d="m640-460-40 40h-60q-25 0-42.5 17.5T480-360v200q0 25 17.5 42.5T540-100h280q25 0 42.5-17.5T880-160v-200q0-25-17.5-42.5T820-420h-60l-40-40zm40 120c22 0 40.818 7.849 56.484 23.516S760-282 760-260s-7.849 40.818-23.516 56.484S702-180 680-180s-40.818-7.849-56.484-23.516S600-238 600-260s7.849-40.818 23.516-56.484S658-340 680-340m151-220h-83q-26-88-99-144t-169-56q-117 0-198.5 81.5T200-480q0 72 32.5 132t87.5 98v-110h80v240H160v-80h94q-62-50-98-122.5T120-480q0-75 28.5-140.5t77-114 114-77T480-840q129 0 226.5 79.5T831-560"/></svg>
