<svg xmlns:svg="http://www.w3.org/2000/svg" width="24" height="24" viewBox="0 0 1032.4293 876.705" fill="currentColor"><g transform="translate(-8.39062,-169.65234)"><circle cx="446.37213" cy="396.92026" r="88"/><circle cx="240.51529" cy="535.80176" r="88"/><circle cx="574.89032" cy="780.79077" r="88"/><circle cx="318.33252" cy="780.80878" r="88"/><circle cx="652.69293" cy="535.88745" r="88"/><circle cx="446.67859" cy="608.25507" r="49.263958" /><path d="m 900.06641,169.65234 -453.75196,0.36524 c -241.39522,0 -437.92382,196.66566 -437.92383,438.16992 0,241.50426 196.52861,438.1699 437.92383,438.1699 175.89612,0 328.97933,-103.66237 398.55499,-253.76264 L 1033.4824,353.14369 c 8.3473,-19.44831 7.2949,-33.96174 7.2949,-45.30971 0,-80.3554 -63.45512,-138.18164 -140.71089,-138.18164 z M 880.57227,227.875 c 50.71383,0 91.12304,40.42218 91.12304,91.20117 0,50.77899 -40.40921,91.20117 -91.12304,91.20117 -50.71384,0 -91.125,-40.42218 -91.125,-91.20117 0,-50.77899 40.41116,-91.20117 91.125,-91.20117 z m -434.25782,22.63281 c 197.86831,0 357.4336,159.64852 357.4336,357.67969 0,198.03117 -159.56529,357.67969 -357.4336,357.67969 -197.86831,0 -357.433591,-159.64852 -357.433591,-357.67969 0,-198.03117 159.565281,-357.67969 357.433591,-357.67969 z"/></g></svg>
