<svg xmlns="http://www.w3.org/2000/svg" height="24" viewBox="0 -960 960 960" width="24" fill="currentColor"><path fill="currentColor" d="M 286.788,-81 C 266.92933,-81 250,-88.070667 236,-102.212 c -14,-14.142 -21,-31.142 -21,-51 0,-19.85867 7.07067,-36.788 21.212,-50.788 14.142,-14 31.142,-21 51,-21 19.85867,0 36.788,7.07067 50.788,21.212 14,14.142 21,31.142 21,51 0,19.85867 -7.07067,36.788 -21.212,50.788 -14.142,14 -31.142,21 -51,21 z m 400,0 C 666.92933,-81 650,-88.070667 636,-102.212 c -14,-14.142 -21,-31.142 -21,-51 0,-19.85867 7.07067,-36.788 21.212,-50.788 14.142,-14 31.142,-21 51,-21 19.85867,0 36.788,7.07067 50.788,21.212 14,14.142 21,31.142 21,51 0,19.85867 -7.07067,36.788 -21.212,50.788 -14.142,14 -31.142,21 -51,21 z M 205,-801 345,-513 h 288 l 161.074,-288 z m 0,0 h 589.074 c 15.30933,0 26.95767,7 34.945,21 7.98733,14 7.981,28 -0.019,42 l -135,243 c -7.33333,12.66667 -16.853,22.83333 -28.559,30.5 -11.70667,7.66667 -24.52033,11.5 -38.441,11.5 H 324 l -56,104 h 491 v 60 H 277 c -28,0 -48.16667,-9.33333 -60.5,-28 -12.33333,-18.66667 -12.16667,-39.66667 0.5,-63 L 281,-498 129,-820 H 51 v -60 h 117 z m 140,288 h 288 z"/></svg>
