<svg xmlns="http://www.w3.org/2000/svg" xmlns:xlink="http://www.w3.org/1999/xlink" width="24" height="24" fill="currentColor" viewBox="0 0 512 477.853"><path id="a" d="M244.758.927a30.28 30.28 0 0 0-30.291 30.291 30.28 30.28 0 0 0 30.291 30.292 30.28 30.28 0 0 0 30.25-30.292A30.28 30.28 0 0 0 244.758.927m0 18.416a11.883 11.883 0 0 1 11.875 11.875 11.883 11.883 0 0 1-11.875 11.875 11.883 11.883 0 0 1-11.916-11.875 11.883 11.883 0 0 1 11.916-11.875"/><use xlink:href="#a" transform="translate(94.487 84.329)"/><use xlink:href="#a" transform="translate(-93.337 105.028)"/><use xlink:href="#a" transform="translate(0 95.445)"/><use xlink:href="#a" transform="translate(113.652 208.139)"/><use xlink:href="#a" transform="translate(217.53 176.707)"/><use xlink:href="#a" transform="translate(-123.235 228.838)"/><use xlink:href="#a" transform="translate(-196.448 331.182)"/><use xlink:href="#a" transform="translate(0 186.29)"/><use xlink:href="#a" transform="translate(0 278.285)"/><use xlink:href="#a" transform="translate(83.754 373.155)"/><use xlink:href="#a" transform="translate(0 373.155)"/><use xlink:href="#a" transform="translate(-83.754 373.155)"/><path d="M246.966 153.863h21.333v85.333h-21.333z" transform="rotate(36.9)"/><path d="M158.974 122.672h21.333v96h-21.333z" transform="rotate(9.635)"/><path d="M136.668-210.731h21.333v53.333h-21.333z" transform="rotate(85.37)"/><path d="M234.071 51.791h21.333v53.333h-21.333z" /><path d="M142.866-306.143h21.333v53.333h-21.333z" transform="rotate(84.011)"/><path d="M318.294 170.379h21.333v85.333h-21.333z" transform="rotate(-6.034)"/><path d="M317.001-371.542h21.333v74.667h-21.333z" transform="rotate(74.352)"/><path d="M234.071 147.103h21.333v53.333h-21.333zM234.071 237.144h21.333v53.333h-21.333zM234.071 327.183h21.333v53.333h-21.333z" /><path d="M396.539-218.417h21.333v42.667h-21.333z" transform="rotate(89.074)"/><path d="M403.528-291.713h21.333v42.667h-21.333z" transform="rotate(87.767)"/><rect width="21.333" height="53.333" x="317.825" y="421.176" ry="9.583" /><rect width="21.333" height="53.333" x="150.317" y="421.176" ry="9.583" /></svg>
